<svg width="80" height="80" viewBox="0 0 80 80" fill="none" xmlns="http://www.w3.org/2000/svg">
<path d="M76 68C76 72.418 72.418 76 68 76H12C7.582 76 4 72.418 4 68V12C4 7.582 7.582 4 12 4H68C72.418 4 76 7.582 76 12V68Z" fill="#78B159"/>
<path d="M18.426 25.95H14.51C11.326 25.95 10 23.628 10 21.372C10 19.052 11.658 16.796 14.51 16.796H23.93C26.782 16.796 28.376 18.852 28.376 21.504V59.254C28.376 62.57 26.252 64.426 23.4 64.426C20.548 64.426 18.426 62.57 18.426 59.254V25.95ZM34.36 40.412C34.36 29.598 38.54 16 51.94 16C65.34 16 69.522 29.598 69.522 40.412C69.522 51.224 65.34 64.826 51.94 64.826C38.54 64.826 34.36 51.224 34.36 40.412ZM59.172 40.412C59.172 35.37 58.708 25.02 51.94 25.02C45.174 25.02 44.71 35.37 44.71 40.412C44.71 45.122 45.174 55.802 51.94 55.802C58.708 55.802 59.172 45.124 59.172 40.412Z" fill="#F5F8FA"/>
</svg>
