<svg width="80" height="80" viewBox="0 0 80 80" fill="none" xmlns="http://www.w3.org/2000/svg">
<path d="M76 68C76 72.418 72.418 76 68 76H12C7.582 76 4 72.418 4 68V12C4 7.582 7.582 4 12 4H68C72.418 4 76 7.582 76 12V68Z" fill="#AA8ED6"/>
<path d="M48.8105 32.5131C50.4433 32.1747 52.2143 31.8364 53.9151 31.8364C62.1492 31.8364 68 38.3346 68 46.2517C68 57.5544 61.7432 65 49.9693 65C45.139 65 35 61.8851 35 55.9304C35 53.4267 37.109 51.3312 39.6262 51.3312C42.3475 51.3312 45.6152 55.6619 50.1734 55.6619C54.9356 55.6619 57.3892 51.0583 57.3892 46.7953C57.3892 42.7352 55.0739 39.9608 50.8559 39.9608C46.9078 39.9608 46.2955 42.1939 42.8259 42.1939C40.1726 42.1939 38.812 40.1638 38.812 39.0135C38.812 38.1338 38.9481 37.4571 39.0161 36.7128L40.7147 22.4284C41.4631 17.1503 42.7557 16 46.0212 16H62.4192C65.553 16 67.3877 17.827 67.3877 20.2631C67.3877 24.9343 63.8522 25.3403 62.6255 25.3403H49.8332L48.8105 32.5131V32.5131Z" fill="white"/>
<path d="M19.7102 25.4183H15.6637C12.3717 25.4183 11 23.0302 11 20.7103C11 18.3221 12.7146 16 15.6637 16H25.4027C28.354 16 30 18.1152 30 20.8445V59.6778C30 63.0917 27.8053 65 24.854 65C21.9049 65 19.7102 63.0917 19.7102 59.6778V25.4183Z" fill="white"/>
</svg>
