<svg width="80" height="80" viewBox="0 0 80 80" fill="none" xmlns="http://www.w3.org/2000/svg">
<path d="M76 68C76 72.418 72.418 76 68 76H12C7.582 76 4 72.418 4 68V12C4 7.582 7.582 4 12 4H68C72.418 4 76 7.582 76 12V68Z" fill="#3B88C3"/>
<path d="M36.778 32.978C38.266 32.668 39.88 32.358 41.43 32.358C48.934 32.358 54.266 38.312 54.266 45.566C54.266 55.922 48.564 62.744 37.834 62.744C33.432 62.744 24.192 59.89 24.192 54.434C24.192 52.14 26.114 50.22 28.408 50.22C30.888 50.22 33.866 54.188 38.02 54.188C42.36 54.188 44.596 49.97 44.596 46.064C44.596 42.344 42.486 39.802 38.642 39.802C35.044 39.802 34.486 41.848 31.324 41.848C28.906 41.848 27.666 39.988 27.666 38.934C27.666 38.128 27.79 37.508 27.852 36.826L29.4 23.738C30.082 18.902 31.26 17.848 34.236 17.848H49.18C52.036 17.848 53.708 19.522 53.708 21.754C53.708 26.034 50.486 26.406 49.368 26.406H37.71L36.778 32.978V32.978Z" fill="white"/>
</svg>
