<svg width="80" height="80" viewBox="0 0 80 80" fill="none" xmlns="http://www.w3.org/2000/svg">
<g clip-path="url(#clip0_306_485)">
<path d="M72 9.99997H28.95V6.25597C28.95 4.16397 27.47 3.38597 25.66 4.52597L5.38001 17.304C3.57001 18.444 3.53601 20.358 5.30401 21.558L25.734 35.42C27.502 36.624 28.948 35.89 28.948 33.798V30H72C74.208 30 76 28.208 76 26V14C76 11.792 74.208 9.99997 72 9.99997ZM4.04801 56.368C4.04801 54.914 5.04801 54.094 6.44201 54.094H12.26C15.412 54.094 17.958 56.216 17.958 59.428C17.958 61.55 17.08 62.972 15.14 63.882V63.942C17.716 64.308 19.746 66.458 19.746 69.094C19.746 73.368 16.898 75.67 12.714 75.67H6.47401C5.08001 75.67 4.05001 74.792 4.05001 73.368V56.368H4.04801ZM8.59401 62.638H10.958C12.442 62.638 13.412 61.76 13.412 60.246C13.412 58.82 12.29 58.094 10.958 58.094H8.59401V62.638V62.638ZM8.59401 71.67H12.17C13.806 71.67 15.018 70.73 15.018 69.034C15.018 67.61 13.928 66.64 11.806 66.64H8.59401V71.67ZM27.028 56.244C27.544 54.852 28.728 53.73 30.27 53.73C31.88 53.73 33 54.79 33.512 56.244L39.454 72.73C39.638 73.214 39.696 73.638 39.696 73.852C39.696 75.034 38.728 75.852 37.606 75.852C36.332 75.852 35.696 75.186 35.392 74.276L34.486 71.428H26.06L25.15 74.246C24.85 75.186 24.212 75.852 22.97 75.852C21.756 75.852 20.726 74.944 20.726 73.73C20.726 73.246 20.878 72.882 20.938 72.73L27.028 56.244V56.244ZM27.364 67.246H33.122L30.302 58.456H30.244L27.364 67.246ZM50.12 53.73C52.332 53.73 56.636 54.456 56.636 57.122C56.636 58.214 55.878 59.154 54.756 59.154C53.514 59.154 52.664 58.094 50.12 58.094C46.362 58.094 44.422 61.276 44.422 64.972C44.422 68.578 46.392 71.67 50.12 71.67C52.664 71.67 53.696 70.396 54.938 70.396C56.302 70.396 56.938 71.76 56.938 72.456C56.938 75.366 52.362 76.032 50.12 76.032C43.968 76.032 39.696 71.154 39.696 64.88C39.696 58.578 43.938 53.73 50.12 53.73V53.73ZM59.062 56.154C59.062 54.912 59.972 53.912 61.336 53.912C62.638 53.912 63.61 54.76 63.61 56.154V62.7L71.064 54.76C71.398 54.396 71.974 53.912 72.822 53.912C73.974 53.912 75.064 54.79 75.064 56.094C75.064 56.88 74.58 57.518 73.58 58.518L67.854 64.154L74.854 71.456C75.58 72.184 76.128 72.85 76.128 73.76C76.128 75.184 75.004 75.85 73.762 75.85C72.882 75.85 72.308 75.334 71.46 74.426L63.612 65.94V73.668C63.612 74.85 62.702 75.85 61.338 75.85C60.036 75.85 59.064 75.002 59.064 73.668V56.154H59.062Z" fill="white"/>
</g>
<defs>
<clipPath id="clip0_306_485">
<rect width="72" height="72" fill="white" transform="translate(4 4)"/>
</clipPath>
</defs>
</svg>
