<svg width="80" height="80" viewBox="0 0 80 80" fill="none" xmlns="http://www.w3.org/2000/svg">
<path d="M76 68C76 72.418 72.418 76 68 76H12C7.582 76 4 72.418 4 68V12C4 7.582 7.582 4 12 4H68C72.418 4 76 7.582 76 12V68Z" fill="#77B255"/>
<path d="M62.56 16.724C60.248 15.222 57.152 15.88 55.644 18.196L33.872 51.754L23.814 42.454C21.786 40.578 18.622 40.704 16.748 42.73C14.874 44.758 14.998 47.922 17.026 49.796L31.444 63.128C32.404 64.018 33.624 64.458 34.836 64.458C36.182 64.458 37.904 63.894 39.034 62.18C39.698 61.168 64.034 23.64 64.034 23.64C65.536 21.322 64.876 18.226 62.56 16.724V16.724Z" fill="white"/>
</svg>
