<svg width="80" height="80" viewBox="0 0 80 80" fill="none" xmlns="http://www.w3.org/2000/svg">
<path fill-rule="evenodd" clip-rule="evenodd" d="M38.3848 7.5542L5.41055 11.5392C4.86225 11.6055 4.47149 12.1037 4.53775 12.652L7.27888 35.3335C7.59923 35.2758 7.93187 35.2566 8.27144 35.2805L22.1023 36.2526L35.6093 34.6202L38.0147 11.9776C38.1368 10.8282 38.7344 9.84447 39.5911 9.20112L39.4975 8.42699C39.4313 7.8787 38.9331 7.48794 38.3848 7.5542ZM73.8666 44.0426C73.2929 44.2641 72.6594 44.3562 72.0059 44.2868L50.9025 42.0448L45.0523 42.7519L43.3932 66.3569C43.3025 67.6471 42.6095 68.7513 41.6083 69.4139C41.8171 69.6793 42.1553 69.8326 42.515 69.7891L75.4892 65.8041C76.0375 65.7378 76.4283 65.2396 76.362 64.6913L73.8666 44.0426ZM41.9887 41.0979L38.9776 40.778C38.4614 40.7232 37.9786 40.5724 37.545 40.3454L8.0611 38.2731C7.51018 38.2344 7.03217 38.6496 6.99345 39.2005L5.27306 63.6776C5.23434 64.2285 5.64957 64.7065 6.2005 64.7453L39.3329 67.074C39.8838 67.1127 40.3618 66.6975 40.4006 66.1466L42.121 41.6695C42.1355 41.4621 42.0858 41.265 41.9887 41.0979ZM42.098 11.4058L75.1263 14.9146C75.6755 14.9729 76.0734 15.4655 76.0151 16.0146L73.4229 40.4148C73.3645 40.964 72.872 41.3619 72.3228 41.3036L39.2945 37.7948C38.7453 37.7364 38.3474 37.2439 38.4058 36.6947L40.998 12.2946C41.0563 11.7454 41.5488 11.3475 42.098 11.4058Z" fill="#FFAC33"/>
</svg>
