<svg width="80" height="80" viewBox="0 0 80 80" fill="none" xmlns="http://www.w3.org/2000/svg">
<path fill-rule="evenodd" clip-rule="evenodd" d="M7.19386 4.08127C7.45425 4.02798 7.72386 4 8 4H41C43.2091 4 45 5.79086 45 8V27H35C30.5817 27 27 30.5817 27 35V45H8C5.79086 45 4 43.2091 4 41V8C4 6.067 5.37113 4.45425 7.19386 4.08127ZM27 49H8C5.79086 49 4 50.7909 4 53V72C4 73.933 5.37113 75.5457 7.19386 75.9187C7.45425 75.972 7.72386 76 8 76H28.0703C27.3896 74.8233 27 73.4571 27 72V49ZM34.5 75.969C34.6638 75.9895 34.8307 76 35 76H72C74.2091 76 76 74.2091 76 72V35C76 33.8053 75.4762 32.7329 74.6458 32C73.9407 31.3776 73.0144 31 72 31H50.5351H45H35C32.7909 31 31 32.7909 31 35V45V49V72C31 74.0398 32.5269 75.723 34.5 75.969ZM50 27H72C73.4571 27 74.8233 27.3896 76 28.0703V8C76 5.79086 74.2091 4 72 4H54C51.7909 4 50 5.79086 50 8V27Z" fill="#AA8ED6"/>
</svg>
