<svg width="80" height="80" viewBox="0 0 80 80" fill="none" xmlns="http://www.w3.org/2000/svg">
<path d="M38 58C34.686 58 32 55.314 32 52V44C32 40.686 34.686 38 38 38C39.206 37.988 50 36 50 28C50 24 46 20 40 20C35.118 20 32 24 32 26C32 29.314 29.314 32 26 32C22.686 32 20 29.314 20 26C20 16.244 29.16 8 40 8C56 8 62 19.964 62 30C62 38.29 57.446 44.626 49.174 47.84C47.374 48.542 45.594 49.014 44 49.334V52C44 55.314 41.314 58 38 58Z" fill="#BE1931"/>
<path d="M38 74C41.3137 74 44 71.3137 44 68C44 64.6863 41.3137 62 38 62C34.6863 62 32 64.6863 32 68C32 71.3137 34.6863 74 38 74Z" fill="#BE1931"/>
</svg>
