<svg width="80" height="80" viewBox="0 0 80 80" fill="none" xmlns="http://www.w3.org/2000/svg">
<path d="M12 14C12 14 12 12 14 12H26C26 12 28 12 28 14V18H12V14Z" fill="#66757F"/>
<path d="M4 24C4 24 4 16 12 16H68C68 16 76 16 76 24V60C76 60 76 68 68 68H12C12 68 4 68 4 60V24Z" fill="#94A3B2"/>
<path d="M46 62C57.0457 62 66 53.0457 66 42C66 30.9543 57.0457 22 46 22C34.9543 22 26 30.9543 26 42C26 53.0457 34.9543 62 46 62Z" fill="#C7DCEC"/>
<path d="M46 58C54.8366 58 62 50.8366 62 42C62 33.1634 54.8366 26 46 26C37.1634 26 30 33.1634 30 42C30 50.8366 37.1634 58 46 58Z" fill="#94A3B2"/>
<path d="M46 52C51.5228 52 56 47.5228 56 42C56 36.4772 51.5228 32 46 32C40.4772 32 36 36.4772 36 42C36 47.5228 40.4772 52 46 52Z" fill="#3B88C3"/>
<path d="M69 26C70.6569 26 72 24.6569 72 23C72 21.3431 70.6569 20 69 20C67.3431 20 66 21.3431 66 23C66 24.6569 67.3431 26 69 26Z" fill="white"/>
<path d="M28 23C28 24.658 26.658 26 25 26H15C13.342 26 12 24.658 12 23C12 21.342 13.342 20 15 20H25C26.658 20 28 21.342 28 23Z" fill="#F5F8FA"/>
</svg>
