<svg width="80" height="80" viewBox="0 0 80 80" fill="none" xmlns="http://www.w3.org/2000/svg">
<path d="M38 34.4444C38 36.408 36.408 38 34.4444 38H9.55556C7.592 38 6 36.408 6 34.4444V9.55556C6 7.592 7.592 6 9.55556 6H34.4444C36.408 6 38 7.592 38 9.55556V34.4444Z" fill="#3B88C3"/>
<path d="M38 70.4444C38 72.408 36.408 74 34.4444 74H9.55556C7.592 74 6 72.408 6 70.4444V45.5556C6 43.592 7.592 42 9.55556 42H34.4444C36.408 42 38 43.592 38 45.5556V70.4444Z" fill="#3B88C3"/>
<path d="M74 70.4444C74 72.408 72.408 74 70.4444 74H45.5556C43.592 74 42 72.408 42 70.4444V45.5556C42 43.592 43.592 42 45.5556 42H70.4444C72.408 42 74 43.592 74 45.5556V70.4444Z" fill="#3B88C3"/>
<path d="M74 34.4444C74 36.408 72.408 38 70.4444 38H45.5556C43.592 38 42 36.408 42 34.4444V9.55556C42 7.592 43.592 6 45.5556 6H70.4444C72.408 6 74 7.592 74 9.55556V34.4444Z" fill="#3B88C3"/>
</svg>
