<svg width="80" height="80" viewBox="0 0 80 80" fill="none" xmlns="http://www.w3.org/2000/svg">
<path d="M72.148 40L62.484 46H60V38C60 37.824 59.96 37.662 59.948 37.488C66.872 35.728 72 29.47 72 22C72 13.164 64.836 6 56 6C47.164 6 39.998 13.164 39.998 22C39.998 24.926 40.822 27.644 42.196 30H33.84C33.934 29.344 34 28.68 34 28C34 20.268 27.732 14 20 14C12.27 14 6 20.268 6 28C6 33.58 9.276 38.386 14 40.634V62C14 66.418 17.582 70 22 70H52C56.418 70 60 66.418 60 62V56H62.484L72.148 62H74V40H72.148ZM61.454 11.954C64.978 13.872 67.376 17.592 67.422 21.876L60.36 20.7C60.136 19.948 59.74 19.27 59.194 18.736L61.454 11.954ZM59.654 24.638L66.758 25.822C65.438 29.536 62.25 32.342 58.33 33.16C57.59 32.194 56.644 31.41 55.546 30.864L56.796 26.484C57.908 26.258 58.948 25.58 59.654 24.638ZM56 10.57C56.564 10.57 57.114 10.624 57.656 10.704L55.394 17.488C54.586 17.596 53.85 17.908 53.232 18.38L46.84 15.184C48.924 12.39 52.246 10.57 56 10.57ZM44.57 22C44.57 20.874 44.74 19.788 45.042 18.76L51.43 21.954L51.426 22C51.426 23.314 52.052 24.49 52.968 25.324L51.632 30H47.89C45.85 27.94 44.57 25.128 44.57 22ZM26.394 21.23C28.196 22.932 29.334 25.326 29.334 28C29.334 28.688 29.248 29.354 29.108 30H24.2C24.49 29.392 24.666 28.718 24.666 28C24.666 27.044 24.376 26.156 23.882 25.416L26.394 21.23ZM20 18.666C21.038 18.666 22.02 18.876 22.952 19.188L20.44 23.376C20.294 23.362 20.15 23.332 20 23.332C19.044 23.332 18.156 23.622 17.416 24.116L13.23 21.606C14.932 19.804 17.326 18.666 20 18.666ZM10.666 28C10.666 26.962 10.876 25.98 11.188 25.046L15.378 27.56C15.364 27.706 15.334 27.848 15.334 28C15.334 29.5 16.054 30.82 17.154 31.674C15.906 32.632 14.96 33.942 14.448 35.464C12.166 33.762 10.666 31.066 10.666 28Z" fill="#94A3B3"/>
<path d="M52 46C54.2091 46 56 44.2091 56 42C56 39.7909 54.2091 38 52 38C49.7909 38 48 39.7909 48 42C48 44.2091 49.7909 46 52 46Z" fill="#C7DCEC"/>
<path d="M22 46C24.2091 46 26 44.2091 26 42C26 39.7909 24.2091 38 22 38C19.7909 38 18 39.7909 18 42C18 44.2091 19.7909 46 22 46Z" fill="#C7DCEC"/>
<path d="M52 58C52 55.792 50.208 54 48 54H26C23.792 54 22 55.792 22 58V70C22 72.208 23.792 74 26 74H48C50.208 74 52 72.208 52 70V58Z" fill="#C7DCEC"/>
</svg>
